<?xml version="1.0" encoding="UTF-8" standalone="no"?>
<svg
   xmlns:dc="http://purl.org/dc/elements/1.1/"
   xmlns:cc="http://creativecommons.org/ns#"
   xmlns:rdf="http://www.w3.org/1999/02/22-rdf-syntax-ns#"
   xmlns:svg="http://www.w3.org/2000/svg"
   xmlns="http://www.w3.org/2000/svg"
   xmlns:sodipodi="http://sodipodi.sourceforge.net/DTD/sodipodi-0.dtd"
   xmlns:inkscape="http://www.inkscape.org/namespaces/inkscape"
   inkscape:version="1.0 (4035a4fb49, 2020-05-01)"
   sodipodi:docname="skipfastaction.svg"
   id="svg6"
   version="1.1"
   height="512"
   width="512"
   viewBox="0 0 512 512">
  <metadata
     id="metadata845">
    <rdf:RDF>
      <cc:Work
         rdf:about="">
        <dc:format>image/svg+xml</dc:format>
        <dc:type
           rdf:resource="http://purl.org/dc/dcmitype/StillImage" />
        <dc:title></dc:title>
      </cc:Work>
    </rdf:RDF>
  </metadata>
  <defs
     id="defs10" />
  <sodipodi:namedview
     inkscape:document-rotation="0"
     inkscape:current-layer="svg6"
     inkscape:window-maximized="1"
     inkscape:window-y="-8"
     inkscape:window-x="1912"
     inkscape:window-height="1017"
     inkscape:window-width="1920"
     inkscape:cy="236.61538"
     inkscape:cx="255.69231"
     inkscape:zoom="1.625"
     showgrid="false"
     inkscape:pagecheckerboard="0"
     inkscape:pageopacity="0.0"
     inkscape:pageshadow="2"
     borderopacity="1.0"
     bordercolor="#666666"
     pagecolor="#ffffff"
     id="namedview8" />
  <g
     style="fill:#ffffff;fill-opacity:1"
     id="g25"
     transform="translate(3.0670722,-7.4039875)">
    <path
       style="fill:#ffffff;fill-opacity:1"
       id="path23"
       fill-opacity="1"
       fill="#ffffff"
       d="m 44.62,106 a 26,26 0 0 0 -25.69,29.3 c 16,124 16,117.4 0,241.4 A 26,26 0 0 0 54.72,404 L 193.4,346.3 c -1.2,9.5 -2.4,18.9 -3.9,30.4 -2.5,19.8 17.3,35 35.8,27.3 l 252,-124 c 9.7,-4 16,-13.5 16,-24 0,-10.5 -6.3,-20 -16,-24 l -252,-124 c -3.2,-1.3 -6.6,-2 -10.1,-2 -15.6,0.1 -27.7,13.8 -25.7,29.3 1.5,11.5 2.7,20.9 3.9,30.4 L 54.72,108 a 26,26 0 0 0 -10.1,-2 z" />
  </g>
  <circle
     r="196.30769"
     cy="254.15384"
     cx="252.92308"
     id="path847"
     style="fill:#ffffff;fill-opacity:0;stroke:#e12424;stroke-width:21.77007874;stroke-opacity:1;stroke-miterlimit:4;stroke-dasharray:none" />
  <rect
     transform="matrix(0.70312678,-0.71106451,0.70312678,0.71106451,0,0)"
     ry="4.3677271e-15"
     y="166.08836"
     x="2.0551391"
     height="381.90997"
     width="5.7228708"
     id="rect857"
     style="fill:#ffffff;fill-opacity:1;stroke:#e12424;stroke-width:21.9463;stroke-miterlimit:4;stroke-dasharray:none;stroke-opacity:1" />
</svg>
